<?xml version="1.0" encoding="utf-8"?>
<!-- Generator: Adobe Illustrator 27.9.0, SVG Export Plug-In . SVG Version: 6.00 Build 0)  -->
<svg version="1.0" id="Camada_1" xmlns="http://www.w3.org/2000/svg" xmlns:xlink="http://www.w3.org/1999/xlink" x="0px" y="0px"
	 viewBox="0 0 173.5 324.2" enable-background="new 0 0 173.5 324.2" xml:space="preserve">
<rect width="173.5" height="324.2"/>
<g>
	<path fill="#FFFFFF" d="M154.7,238.5H18.9c-0.2,0-0.3-0.1-0.3-0.3V102.4c0,0,0,0,0,0V18.5c0-0.2,0.1-0.3,0.3-0.3h135.8
		c0.2,0,0.3,0.1,0.3,0.3v51.9c0,0,0,0,0,0v167.8C155,238.3,154.9,238.5,154.7,238.5z M19.2,237.8h135.2V102.7h-51.6h0h0H19.2V237.8z
		 M123,102h31.3V70.7h-31.3v7.6c0,0,0,0,0,0V102z M103.1,102h19.3V82.7h-7.6c0,0,0,0,0,0h-11.7V102z M19.2,102h83.3V70.4
		c0,0,0,0,0,0V18.8H19.2V102z M119,82.1h3.4v-3.4H119V82.1z M115.1,82.1h3.2v-3.4h-3.2V82.1z M103.1,82.1h11.4V70.7h-11.4V82.1z
		 M115.1,78h7.3v-7.3h-7.3V78z M103.1,70.1h51.3V18.8h-51.3V70.1z"/>
</g>
<g>
	<g>
		<path fill="#8A3F1E" d="M155.3,238.6h-0.5c-75.1,0-136.2-61-136.2-136l0-0.5c0.2-46.2,37.7-83.7,83.8-83.9v0l0.9,0
			c28.6,0.2,51.9,23.4,52.1,51.9h0v0.5c0,17.9-14.7,32.4-32.8,32.4l-0.5,0c-10.9-0.3-19.8-9.2-19.8-20.3l0-0.5
			c0.3-6.8,5.9-12.2,12.7-12.2l0.5,0c4.3,0.3,7.8,3.7,7.9,7.8h0l0,0.8c-0.1,2.8-2.9,4.4-5.6,4.4h-0.5v-1h0.5c2.2,0,4.5-1.2,4.5-3.5
			v-0.3c0-3.8-3.4-7-7.4-7l-0.5,0c-6.2,0.3-11.2,5.4-11.2,11.7l0,0.5c0.3,10.4,8.8,18.7,19.2,18.7l0.5,0c17.2-0.3,31.1-14,31.3-31h0
			v-0.5c0-28.2-23-51.2-51.4-51.2h-0.2c-45.8,0-83.1,37.3-83.1,83.2l0,0.5c0.2,74.3,60.7,134.6,135.1,134.6h0.5V238.6z"/>
	</g>
</g>
<g>
	<g>
		<path fill="#FFFFFF" d="M34.2,382c1.8,0,3.4,0.3,4.7,0.9c1.3,0.6,2.3,1.5,3,2.6c0.7,1.1,1.1,2.5,1.1,4.2c0,1-0.1,2-0.4,2.9
			c-0.3,1-0.8,1.8-1.4,2.6c-0.7,0.8-1.5,1.4-2.6,1.9c-1.1,0.5-2.3,0.7-3.9,0.7h-3.7v9.1h-3.3V382H34.2z M34.6,394.5
			c1,0,1.8-0.2,2.4-0.5c0.6-0.3,1.1-0.7,1.5-1.2s0.6-1,0.8-1.6c0.2-0.5,0.2-1,0.2-1.5c0-0.5-0.1-1-0.2-1.6c-0.2-0.5-0.4-1-0.8-1.5
			c-0.4-0.4-0.9-0.8-1.5-1.1s-1.4-0.4-2.3-0.4h-3.9v9.3H34.6z"/>
		<path fill="#FFFFFF" d="M47.2,380.2h3.2v26.7h-3.2V380.2z"/>
		<path fill="#FFFFFF" d="M61.9,407.2c-1.3,0-2.5-0.3-3.6-0.9c-1.1-0.6-2-1.4-2.6-2.5c-0.6-1.1-1-2.5-1-4.1s0.3-3,1-4.1
			s1.6-2,2.7-2.7c1.1-0.6,2.4-0.9,3.7-0.9c1.3,0,2.5,0.3,3.4,0.9s1.6,1.3,2.1,2.2l-0.2,0.5l0.3-3h3v14.3h-3.2v-3.7l0.4,0.8
			c-0.1,0.2-0.3,0.5-0.7,0.9c-0.3,0.4-0.7,0.7-1.2,1.1c-0.5,0.4-1.1,0.7-1.7,0.9C63.6,407.1,62.8,407.2,61.9,407.2z M62.8,404.6
			c0.8,0,1.5-0.1,2.2-0.4c0.6-0.3,1.2-0.7,1.6-1.3c0.4-0.6,0.7-1.2,0.9-1.9v-2.8c-0.2-0.7-0.5-1.3-1-1.8c-0.5-0.5-1-0.9-1.7-1.2
			s-1.3-0.4-2.1-0.4c-0.9,0-1.7,0.2-2.4,0.6c-0.7,0.4-1.3,1-1.7,1.7c-0.4,0.7-0.6,1.6-0.6,2.6c0,0.9,0.2,1.8,0.7,2.5
			c0.4,0.8,1,1.4,1.8,1.8C61.2,404.4,62,404.6,62.8,404.6z"/>
		<path fill="#FFFFFF" d="M87.8,405.5c-0.6,0.5-1.4,0.9-2.3,1.2c-0.9,0.3-1.8,0.4-2.7,0.4c-1.5,0-2.9-0.3-4.1-0.9
			c-1.2-0.6-2.1-1.5-2.8-2.6c-0.7-1.1-1-2.4-1-4c0-1.5,0.4-2.8,1.1-3.9c0.7-1.1,1.6-2,2.8-2.6s2.4-0.9,3.7-0.9c1.1,0,2.1,0.2,3,0.5
			c0.9,0.3,1.7,0.8,2.4,1.3l-1.6,2.1c-0.4-0.3-0.9-0.6-1.5-0.8c-0.6-0.3-1.3-0.4-2-0.4c-0.9,0-1.6,0.2-2.3,0.6
			c-0.7,0.4-1.3,1-1.7,1.7c-0.4,0.7-0.6,1.5-0.6,2.5c0,0.9,0.2,1.7,0.6,2.4c0.4,0.7,1,1.3,1.7,1.8c0.7,0.4,1.6,0.7,2.5,0.7
			c0.6,0,1.2-0.1,1.7-0.3c0.5-0.2,1-0.4,1.4-0.8L87.8,405.5z"/>
		<path fill="#FFFFFF" d="M98.5,407.2c-1.6,0-3-0.3-4.2-1c-1.2-0.7-2.1-1.5-2.7-2.7c-0.6-1.1-1-2.4-1-3.9c0-1.4,0.4-2.7,1.1-3.8
			c0.7-1.1,1.7-2.1,2.9-2.8c1.2-0.7,2.5-1,4-1c1.9,0,3.4,0.6,4.7,1.7s2.1,2.6,2.5,4.5l-11.8,4.1l-0.8-1.9l9.6-3.5l-0.7,0.5
			c-0.3-0.8-0.7-1.4-1.4-2c-0.6-0.6-1.5-0.8-2.5-0.8c-0.9,0-1.6,0.2-2.3,0.6c-0.7,0.4-1.2,1-1.6,1.7c-0.4,0.7-0.6,1.6-0.6,2.5
			c0,1,0.2,1.8,0.6,2.6s1,1.3,1.7,1.8c0.7,0.4,1.5,0.6,2.5,0.6c0.6,0,1.2-0.1,1.8-0.3c0.6-0.2,1.1-0.5,1.7-0.9l1.4,2.4
			c-0.7,0.5-1.5,0.9-2.4,1.2C100.3,407.1,99.4,407.2,98.5,407.2z"/>
	</g>
</g>
<g>
	<path fill="#FFFFFF" d="M20.7,301.3l0,0.5l0-0.1l4.6-4.5h0.8l-3.8,3.8l4.3,5.5h-0.8l-3.9-5.1l-1.1,1.1l0,4h-0.7v-9.3h0.7V301.3z"/>
	<path fill="#FFFFFF" d="M36.7,297.1h0.6v8.7h5.1v0.6h-5.7V297.1z"/>
	<path fill="#FFFFFF" d="M51.8,306.4l3.9-9.7h0.1l3.9,9.7H59l-3.4-8.7l0.4-0.2l-3.6,8.9H51.8z M53.7,302.7h4.1l0.2,0.6h-4.5
		L53.7,302.7z"/>
	<path fill="#FFFFFF" d="M71.9,297.1c0.9,0,1.6,0.2,2.1,0.6c0.5,0.4,0.7,1,0.7,1.8c0,0.4-0.1,0.8-0.2,1.1c-0.2,0.3-0.4,0.6-0.7,0.8
		c-0.3,0.2-0.7,0.4-1.2,0.4l-0.1-0.3c0.5,0,0.9,0.2,1.3,0.4c0.4,0.2,0.7,0.5,1,0.8c0.2,0.3,0.4,0.7,0.4,1.2c0,0.4-0.1,0.8-0.2,1.1
		c-0.2,0.3-0.4,0.6-0.7,0.8c-0.3,0.2-0.6,0.4-0.9,0.5c-0.3,0.1-0.7,0.1-1.1,0.1h-2.4v-9.3H71.9z M72.2,301.4c0.7,0,1.1-0.2,1.4-0.5
		s0.4-0.8,0.4-1.3c0-0.7-0.2-1.1-0.6-1.4c-0.4-0.3-0.9-0.4-1.6-0.4h-1.4v3.7H72.2z M72.3,305.8c0.4,0,0.8-0.1,1.2-0.2
		c0.3-0.1,0.6-0.3,0.8-0.6c0.2-0.3,0.3-0.6,0.3-1c0-0.5-0.1-0.8-0.4-1.1c-0.2-0.3-0.5-0.5-0.9-0.6c-0.4-0.1-0.7-0.2-1.1-0.2h-1.7
		v3.7H72.3z"/>
	<path fill="#FFFFFF" d="M85.6,297.1h0.6v9.3h-0.6V297.1z"/>
	<path fill="#FFFFFF" d="M105,306.6l-7.3-8.3l0.2-0.1l0,8.2h-0.6v-9.5h0l7.3,8.3l-0.2,0.1l0-8.2h0.6L105,306.6L105,306.6z"/>
</g>
<g>
	<g>
		<path fill="#FFFFFF" d="M26.9,245.4c2.2,0,4.2,0.4,5.9,1.1c1.7,0.8,3.1,1.9,4.1,3.5c1,1.6,1.5,3.6,1.5,6c0,1.4-0.2,2.9-0.7,4.2
			c-0.5,1.4-1.2,2.6-2.2,3.6c-1,1.1-2.3,1.9-3.8,2.5c-1.6,0.6-3.4,0.9-5.6,0.9h-6.4v18.1h-1.1v-40.2H26.9z M26.1,266.4
			c2.2,0,4.1-0.3,5.5-1c1.5-0.7,2.6-1.6,3.4-2.6c0.8-1.1,1.4-2.2,1.8-3.4c0.4-1.2,0.5-2.3,0.5-3.3c0-1.5-0.3-2.9-0.8-4.1
			c-0.5-1.2-1.2-2.2-2.1-3c-0.9-0.8-2-1.4-3.3-1.8c-1.3-0.4-2.7-0.6-4.2-0.6h-7.2v19.9H26.1z"/>
	</g>
	<g>
		<path fill="#FFFFFF" d="M52.7,246.6h1v39h-1V246.6z"/>
	</g>
	<g>
		<path fill="#FFFFFF" d="M78,285.9c-2.1,0-3.9-0.5-5.6-1.5c-1.7-1-3-2.3-4-4c-1-1.7-1.5-3.6-1.5-5.7c0-2.4,0.5-4.4,1.5-6.1
			c1-1.7,2.4-3,4.1-3.8s3.6-1.3,5.7-1.3c2.3,0,4.3,0.6,6.2,1.9c1.8,1.3,3.2,2.9,4,4.9l-0.1,0.7l0.3-7.2h0.9v21.6h-1.1v-7.4l0.2,0.8
			c-0.4,1-0.9,1.9-1.6,2.7c-0.7,0.8-1.5,1.6-2.4,2.2c-0.9,0.6-1.9,1.1-3,1.5C80.4,285.8,79.3,285.9,78,285.9z M78.2,285
			c1.9,0,3.6-0.4,5.1-1.3c1.5-0.8,2.7-2,3.7-3.5c0.9-1.5,1.4-3.1,1.4-5v-2.3c-0.3-1.6-0.9-3-1.9-4.2c-1-1.3-2.2-2.3-3.6-3
			c-1.4-0.8-3-1.1-4.7-1.1c-1.9,0-3.6,0.4-5.1,1.3c-1.5,0.8-2.8,2-3.7,3.6c-0.9,1.5-1.3,3.3-1.3,5.4c0,1.9,0.5,3.6,1.4,5.2
			c0.9,1.5,2.1,2.8,3.7,3.7C74.6,284.5,76.3,285,78.2,285z"/>
		<path fill="#FFFFFF" d="M122,283.5c-1,0.8-2.1,1.4-3.3,1.8c-1.2,0.4-2.5,0.7-3.8,0.7c-2.1,0-4-0.5-5.7-1.5c-1.7-1-3.1-2.3-4.1-4
			c-1-1.7-1.5-3.6-1.5-5.7s0.5-4,1.5-5.7c1-1.7,2.4-3.1,4.1-4.1c1.7-1,3.6-1.5,5.6-1.5c1.4,0,2.7,0.2,3.9,0.7
			c1.2,0.4,2.3,1.1,3.3,1.9l-0.6,0.8c-0.9-0.7-1.9-1.2-3-1.7c-1.1-0.4-2.3-0.7-3.5-0.7c-1.9,0-3.6,0.5-5.1,1.4
			c-1.5,0.9-2.7,2.2-3.6,3.7c-0.9,1.5-1.3,3.3-1.3,5.2c0,1.9,0.4,3.6,1.3,5.1c0.9,1.5,2.1,2.8,3.7,3.7c1.5,0.9,3.3,1.4,5.1,1.4
			c1.2,0,2.4-0.2,3.5-0.6c1.1-0.4,2.1-0.9,2.9-1.6L122,283.5z"/>
		<path fill="#FFFFFF" d="M144.6,285.9c-2.1,0-4-0.5-5.7-1.5c-1.7-1-3.1-2.3-4.1-4c-1-1.7-1.5-3.6-1.5-5.7c0-2.1,0.5-3.9,1.5-5.7
			c1-1.7,2.4-3.1,4.1-4.1c1.7-1,3.6-1.5,5.7-1.5c2.4,0,4.4,0.7,6.1,2.1c1.7,1.4,2.9,3.1,3.7,5.2l-19.6,8l-0.3-1l19-7.7l-0.3,0.6
			c-0.8-1.7-1.9-3.1-3.4-4.3c-1.5-1.2-3.2-1.8-5.2-1.8c-1.9,0-3.6,0.5-5.1,1.4c-1.5,0.9-2.7,2.2-3.6,3.7c-0.9,1.6-1.3,3.3-1.3,5.1
			c0,1.8,0.4,3.4,1.3,5c0.8,1.6,2,2.8,3.5,3.8s3.3,1.5,5.4,1.5c1.3,0,2.6-0.2,3.8-0.7c1.2-0.5,2.3-1.2,3.2-2l0.7,0.8
			c-1,0.9-2.2,1.6-3.5,2.1S146.1,285.9,144.6,285.9z"/>
	</g>
</g>
</svg>
